<?xml version="1.0" encoding="UTF-8" standalone="no"?>
<!-- Generator: Adobe Illustrator 22.1.0, SVG Export Plug-In . SVG Version: 6.00 Build 0)  -->

<svg
   xmlns:dc="http://purl.org/dc/elements/1.1/"
   xmlns:cc="http://creativecommons.org/ns#"
   xmlns:rdf="http://www.w3.org/1999/02/22-rdf-syntax-ns#"
   xmlns:svg="http://www.w3.org/2000/svg"
   xmlns="http://www.w3.org/2000/svg"
   xmlns:sodipodi="http://sodipodi.sourceforge.net/DTD/sodipodi-0.dtd"
   xmlns:inkscape="http://www.inkscape.org/namespaces/inkscape"
   version="1.1"
   id="Calque_1"
   x="0px"
   y="0px"
   viewBox="0 0 2267.7 668.7"
   style="enable-background:new 0 0 2267.7 668.7;"
   xml:space="preserve"
   sodipodi:docname="Logo-MAX-couleur-light.svg"
   inkscape:version="0.92.4 (5da689c313, 2019-01-14)"><metadata
   id="metadata35"><rdf:RDF><cc:Work
       rdf:about=""><dc:format>image/svg+xml</dc:format><dc:type
         rdf:resource="http://purl.org/dc/dcmitype/StillImage" /></cc:Work></rdf:RDF></metadata><defs
   id="defs33" /><sodipodi:namedview
   pagecolor="#ffffff"
   bordercolor="#666666"
   borderopacity="1"
   objecttolerance="10"
   gridtolerance="10"
   guidetolerance="10"
   inkscape:pageopacity="0"
   inkscape:pageshadow="2"
   inkscape:window-width="640"
   inkscape:window-height="480"
   id="namedview31"
   showgrid="false"
   inkscape:zoom="0.1957931"
   inkscape:cx="1133.85"
   inkscape:cy="334.35001"
   inkscape:window-x="0"
   inkscape:window-y="0"
   inkscape:window-maximized="0"
   inkscape:current-layer="Calque_1" />
<style
   type="text/css"
   id="style2">
	.st0{fill:#F89730;}
	.st1{fill:#F2642A;}
	.st2{fill:#EE2F33;}
</style>
<title
   id="title4">Logo-MAX-couleur-reussite-collaborative</title>
<g
   id="g28">
	
	
	<path
   class="st1"
   d="M1413.7,503l118.2-117.7l-245.4-244.6C1235.8,88.4,1166,58.9,1093.1,59c-149,0-269.8,120.8-269.8,269.8   S944,598.7,1093,598.7c74,0.1,144.8-30.3,195.7-84.1l49.6-49.8l-7.8-7.8l0,0l-55-55l0,0l-55.2-55.2l-54.9,55.1l0.2,0.2h-0.6   c-40.5,39.8-105.6,39.3-145.4-1.1s-39.3-105.6,1.1-145.4c39.9-39.3,103.9-39.4,144-0.3h0.3l147.1,146.6L1413.7,503z"
   id="path10" />
	<path
   class="st0"
   d="M2179,524.3l-118.2-118.2c-41.8,38.3-106.8,35.5-145.2-6.3c-16.5-18-26-41.3-26.9-65.7c0-2.1,0.1-4.2,0.1-6.4   V325c2.9-56.7,51.3-100.3,108-97.4c22,1.1,43,9.3,60,23.3L2175,132.6c-104-96.6-265.1-96.1-368.5,1.2   c-103.1-99.7-266.1-101.4-371.2-3.8l118.3,118.3c43.8-36.1,108.6-29.8,144.7,14.1c14.3,17.4,22.5,39,23.3,61.5   c0,2.1-0.1,4.2-0.1,6.4v2.7c-2.9,56.7-51.3,100.3-108,97.4c-23.8-1.2-46.5-10.7-64.1-26.9l-118.2,118.2   c103.6,100.2,267.6,101.3,372.5,2.6C1908.3,625.5,2074.4,625.5,2179,524.3z"
   id="path12" />
	<path
   class="st2"
   d="M871.1,175.3l-3.6,5.4C868.6,178.9,869.8,177.1,871.1,175.3z"
   id="path14" />
	<path
   class="st2"
   d="M876.8,167.4c-1.9,2.6-3.8,5.2-5.7,7.9C872.9,172.6,874.8,170,876.8,167.4z"
   id="path16" />
	<path
   class="st2"
   d="M893.2,147.4c-3.6,4-7.1,8.1-10.5,12.3C886.1,155.5,889.6,151.4,893.2,147.4z"
   id="path18" />
	<path
   class="st2"
   d="M880.7,162.3c-1.3,1.7-2.7,3.4-3.9,5.1C878,165.7,879.4,164,880.7,162.3z"
   id="path20" />
	<path
   class="st2"
   d="M820.8,213.9c14.8-35.1,36.3-67,63.3-93.9c1.3-1.3,2.6-2.5,3.9-3.8c-105.7-83.9-257.1-76.8-354.5,16.5   c-50.2-48.2-117.1-75.1-186.7-75C197.8,57.8,77,178.6,77,327.6c0,3.5,0.1,7.1,0.2,10.6v260.7h167v-272l0,0   c-0.1-1.6-0.1-3.2-0.1-4.8c0-56.8,46-102.8,102.8-102.8s102.8,46,102.8,102.8c0,1.6,0,3.2-0.1,4.8l0,0v272H617v-272   c-0.1-1.6,0-3.2,0-4.8c0-56.8,46.5-102.8,103.3-102.8c33.8,0,65.4,16.6,84.6,44.4C808.7,246.7,814,230,820.8,213.9z"
   id="path22" />
	<path
   class="st2"
   d="M823.2,326.9c0.2-42,10.3-83.4,29.5-120.8C833.5,243.5,823.4,284.9,823.2,326.9L823.2,326.9z"
   id="path24" />
	<path
   class="st2"
   d="M867.4,180.7c-4.8,7.2-9.2,14.7-13.3,22.4C858.2,195.4,862.7,187.9,867.4,180.7z"
   id="path26" />
</g>
</svg>